Motion_sv04_j
version=1
nRows=16
nColumns=43
inDegrees=yes
endheader
time	pelvis_tilt	pelvis_list	pelvis_rotation	pelvis_tx	pelvis_ty	pelvis_tz	hip_flexion_r	hip_adduction_r	hip_rotation_r	knee_angle_r	ankle_angle_r	subtalar_angle_r	mtp_angle_r	hip_flexion_l	hip_adduction_l	hip_rotation_l	knee_angle_l	ankle_angle_l	subtalar_angle_l	mtp_angle_l	lumbar_extension	lumbar_bending	lumbar_rotation	neck_flexion	neck_lateral_bending	neck_rotation	arm_flex_r	arm_add_r	arm_rot_r	elbow_flex_r	pro_sup_r	wrist_flex_r	wrist_dev_r	hand_finger_flex_r	arm_flex_l	arm_add_l	arm_rot_l	elbow_flex_l	pro_sup_l	wrist_flex_l	wrist_dev_l	hand_finger_flex_l
      3.66500000	     -2.60124292	    -25.47349947	    -83.02176908	     -0.05069610	      0.90028856	     -0.15545006	     11.60014595	     -1.21603553	     -3.55717683	    -41.27747244	      5.29566357	     -2.12316440	     -4.21392139	    -49.03236848	     -9.72667366	    -27.05457184	    -18.58672379	     20.73563197	     29.39384111	     29.88152960	    -42.81056279	      8.12306622	      3.59465027	    -11.15632618	     -4.15636794	    -13.15577546	    -20.31720680	     -9.97351938	    -17.60946842	     77.67002309	    124.71334825	      0.14740654	     -5.16893388	    -21.94242318	    -28.32221020	    -17.17937776	    -26.38941643	     96.05642036	    138.17492569	    -21.00631699	    -15.02110310	      2.73928221
      3.66750000	     -2.61295470	    -25.27408835	    -82.96960742	     -0.05119852	      0.89963146	     -0.15337100	     11.97829365	     -1.18917030	     -3.68655657	    -41.67632025	      5.47225019	     -2.46925319	     -4.35636891	    -48.87583224	     -9.83953629	    -27.01314635	    -18.71116026	     20.57990349	     29.30141217	     30.01675026	    -42.84216153	      8.21044785	      3.58357681	    -10.50956518	     -4.19233037	    -13.00528059	    -20.24483168	     -9.99956279	    -17.59717078	     78.02929815	    124.86305527	      0.10121456	     -5.15220621	    -22.10247426	    -28.04160219	    -17.41265359	    -26.28002103	     96.34615355	    138.11969149	    -21.06264988	    -15.03788587	      2.76624515
      3.67000000	     -2.64081253	    -25.19875285	    -82.94904539	     -0.05147114	      0.89923906	     -0.15117752	     12.22479259	     -1.14559303	     -3.74980273	    -42.09799802	      5.55004569	     -2.64476076	     -4.41254638	    -48.88355816	     -9.91710216	    -26.97339625	    -18.78512360	     20.51112161	     29.25879598	     30.07037962	    -42.92075316	      8.32099846	      3.54557189	    -10.25961771	     -4.21785442	    -12.93677917	    -20.09533902	    -10.18539375	    -17.41787087	     78.24566026	    124.94173014	      0.12043222	     -5.17625866	    -22.15768612	    -27.68723893	    -17.58688283	    -26.17254410	     96.48819247	    138.09652620	    -21.06857976	    -15.04613314	      2.77723439
      3.67250000	     -2.64534351	    -24.91749985	    -82.88224825	     -0.05205555	      0.89843183	     -0.14923764	     12.70471295	     -1.11362801	     -3.83972834	    -42.45431580	      5.60988986	     -3.18866501	     -4.63088560	    -48.58059864	    -10.04426848	    -26.84813571	    -19.01598184	     20.45050332	     29.12480104	     30.25711945	    -42.90352787	      8.40171330	      3.53856516	     -9.50939624	     -4.23120803	    -12.70972543	    -20.01782657	    -10.18474392	    -17.42351459	     78.64641639	    125.20592505	      0.01079392	     -5.09341802	    -22.39410455	    -27.36710413	    -17.86615532	    -26.02039965	     96.80939330	    137.96782717	    -21.15134667	    -14.99801118	      2.80102563
      3.67500000	     -2.59493135	    -24.56148493	    -82.87789542	     -0.05268968	      0.89760336	     -0.14744769	     13.34081052	     -1.07916521	     -3.67194812	    -42.90703920	      5.46299454	     -3.99468523	     -5.31593591	    -48.10917280	    -10.05089069	    -26.45177026	    -19.40700572	     20.65447807	     28.75012060	     30.81012390	    -42.76501175	      8.38743089	      3.49008826	     -9.13187080	     -4.23501582	    -12.50431580	    -19.80832616	    -10.27555984	    -17.27654070	     78.91931090	    125.88152087	      0.06433354	     -4.92464434	    -22.92084559	    -26.93977537	    -18.12535761	    -25.78940786	     96.96447013	    137.61059961	    -21.33930029	    -14.77010578	      2.89361343
      3.67750000	     -2.63172221	    -24.44939627	    -82.84693614	     -0.05289453	      0.89707958	     -0.14505928	     13.59149643	     -1.05606097	     -3.79813673	    -43.25074746	      5.61035863	     -4.10341108	     -5.36367806	    -48.13463671	    -10.12257462	    -26.49573626	    -19.39530052	     20.46578008	     28.68232668	     30.83817193	    -42.79492498	      8.52066204	      3.43913562	     -8.84407815	     -4.28190340	    -12.44780127	    -19.68214613	    -10.46897722	    -17.11632851	     79.17051774	    125.93559833	      0.08741539	     -4.99241736	    -22.96555683	    -26.61756798	    -18.31718493	    -25.66974340	     97.16932604	    137.60879712	    -21.33848739	    -14.82413605	      2.91044812
      3.68000000	     -2.60671489	    -24.17544257	    -82.82259938	     -0.05331319	      0.89633217	     -0.14317419	     14.05180747	     -1.06034230	     -3.78899483	    -43.54540101	      5.67353550	     -4.53218177	     -5.78618725	    -47.81372321	    -10.17407659	    -26.34061149	    -19.69627617	     20.44605528	     28.53782591	     31.14249985	    -42.79827761	      8.58084396	      3.46586350	     -8.13614660	     -4.30092136	    -12.17432520	    -19.59525818	    -10.52060484	    -17.12457230	     79.61524030	    126.36215417	     -0.03551914	     -4.93441376	    -23.29433274	    -26.18087486	    -18.53621392	    -25.45761691	     97.42532840	    137.44010574	    -21.43309689	    -14.77861267	      2.98735902
      3.68250000	     -2.63938609	    -24.05352151	    -82.80470001	     -0.05365333	      0.89578920	     -0.14080103	     14.32418588	     -1.03969054	     -3.93226958	    -43.88023646	      5.80314520	     -4.67864853	     -5.84559292	    -47.83642028	    -10.23734627	    -26.38403885	    -19.67350757	     20.28390140	     28.46983745	     31.17412303	    -42.82045009	      8.69076533	      3.41585666	     -7.86082260	     -4.35372956	    -12.11690544	    -19.41500214	    -10.68602672	    -16.97183658	     79.81905342	    126.44468175	     -0.03189924	     -4.96664736	    -23.33688716	    -25.81815049	    -18.75207595	    -25.34246648	     97.62880296	    137.42743937	    -21.43621793	    -14.81667693	      3.00452988
      3.68500000	     -2.57405495	    -23.75346623	    -82.78292477	     -0.05398988	      0.89497461	     -0.13887689	     14.80942568	     -1.08484342	     -3.87048730	    -44.15347709	      5.84314574	     -5.14814333	     -6.29573797	    -47.49812609	    -10.23796672	    -26.23749194	    -19.96669234	     20.25326545	     28.37237732	     31.46806061	    -42.79862454	      8.71865717	      3.43584772	     -7.17093312	     -4.38294237	    -11.84277926	    -19.32799855	    -10.75211470	    -16.96814910	     80.29657448	    126.95458973	     -0.25589068	     -4.81523543	    -23.61914695	    -25.36386192	    -18.97494836	    -25.09052683	     97.90652185	    137.23726442	    -21.54958726	    -14.74306474	      3.08692744
      3.68750000	     -2.59867772	    -23.62751635	    -82.77275877	     -0.05432060	      0.89440935	     -0.13649599	     15.08932566	     -1.08070785	     -4.01695583	    -44.46988961	      5.98230258	     -5.28212895	     -6.36011069	    -47.52736400	    -10.28699147	    -26.29497899	    -19.92671275	     20.09466455	     28.31369989	     31.50065658	    -42.82361165	      8.82119195	      3.38127415	     -6.89056942	     -4.43867641	    -11.78595596	    -19.12109286	    -10.91760440	    -16.80896579	     80.50216486	    127.03864347	     -0.25654403	     -4.83835890	    -23.64830983	    -24.97271867	    -19.18590020	    -24.95696333	     98.11813040	    137.22582227	    -21.55433966	    -14.78441329	      3.10637722
      3.69000000	     -2.56898817	    -23.38239745	    -82.73634155	     -0.05471725	      0.89363543	     -0.13430429	     15.48740824	     -1.13160879	     -4.13075705	    -44.71301424	      6.13692034	     -5.54320648	     -6.55783738	    -47.36451776	    -10.32229866	    -26.30719739	    -20.00832862	     19.89875259	     28.28902180	     31.61631000	    -42.82697202	      8.88773180	      3.38133020	     -6.21571841	     -4.49896266	    -11.57497859	    -19.01588676	    -10.95641625	    -16.81343922	     80.91856631	    127.27388172	     -0.43608693	     -4.74403278	    -23.77224235	    -24.55538079	    -19.41751771	    -24.76220776	     98.42957510	    137.15270017	    -21.61691560	    -14.79529230	      3.14584015
      3.69250000	     -2.53266877	    -23.18215206	    -82.71465637	     -0.05507974	      0.89293596	     -0.13215221	     15.86637881	     -1.17661331	     -4.18535270	    -44.99776958	      6.23382841	     -5.76678710	     -6.79516131	    -47.25287151	    -10.33431155	    -26.26315833	    -20.07302605	     19.80336104	     28.28609022	     31.76440081	    -42.85796280	      8.94065757	      3.37102123	     -5.67259109	     -4.53153643	    -11.40435363	    -18.85034949	    -11.06606775	    -16.72322607	     81.27422525	    127.53937004	     -0.58253570	     -4.61494752	    -23.87775350	    -24.08868634	    -19.66267958	    -24.52902344	     98.69624386	    137.07041345	    -21.68647765	    -14.78995338	      3.19037192
      3.69500000	     -2.53732568	    -23.08263640	    -82.71339368	     -0.05535152	      0.89248902	     -0.12987213	     16.03584393	     -1.17184027	     -4.20492440	    -45.07923544	      6.29432096	     -5.80433500	     -6.81181264	    -47.30882600	    -10.35283527	    -26.27805073	    -20.03418962	     19.76205923	     28.27846355	     31.77557873	    -42.91732410	      9.03854353	      3.30577537	     -5.64328953	     -4.56628761	    -11.37495907	    -18.58617281	    -11.20624242	    -16.60896848	     81.47580535	    127.56860159	     -0.58436563	     -4.65184032	    -23.88306593	    -23.67666640	    -19.75291034	    -24.44100423	     98.98369920	    137.06412749	    -21.71180028	    -14.84541709	      3.18604971
      3.69750000	     -2.34103994	    -22.66423425	    -82.67512426	     -0.05581314	      0.89132813	     -0.12783651	     16.78695601	     -1.36903875	     -4.15819385	    -45.59959697	      6.55256540	     -6.31323645	     -8.49034739	    -46.91651786	    -10.17850097	    -25.92335037	    -20.14045908	     19.53843977	     27.95251115	     32.81442400	    -42.77594047	      8.92473777	      3.27515478	     -4.82117481	     -4.61598086	    -11.19670100	    -18.46849750	    -11.27872320	    -16.49138378	     82.00297936	    128.84445591	     -0.78515135	     -4.04098528	    -24.15381911	    -23.14064773	    -20.15422813	    -23.91771501	     99.22992333	    136.59324148	    -22.29933763	    -14.55685478	      3.51792472
      3.70000000	     -2.35575477	    -22.55694154	    -82.66755516	     -0.05626975	      0.89085907	     -0.12556115	     16.96929233	     -1.33980708	     -4.18811876	    -45.63012823	      6.61674406	     -6.32350078	     -8.49774788	    -46.98521052	    -10.21163569	    -25.93817871	    -20.05344940	     19.49514671	     27.94688394	     32.81898434	    -42.84287253	      9.02212790	      3.20782507	     -4.76233945	     -4.65685768	    -11.15921233	    -18.17577429	    -11.39018985	    -16.38021662	     82.19932213	    128.84697174	     -0.77756557	     -4.10093240	    -24.15385435	    -22.70297940	    -20.27115229	    -23.83295706	     99.54325953	    136.60428908	    -22.31447179	    -14.63420220	      3.51643650
      3.70250000	     -2.43441150	    -22.36117631	    -82.60887057	     -0.05665734	      0.89010907	     -0.12328339	     17.33204414	     -1.31026219	     -4.41264605	    -45.84158794	      6.76712461	     -6.41729534	     -8.63298765	    -46.99819076	    -10.31523333	    -25.87361772	    -19.84379542	     19.26829471	     27.93881503	     32.88749671	    -42.93788439	      9.20735076	      3.27400170	     -3.70276653	     -4.66362600	    -10.87562307	    -18.05991319	    -11.50688383	    -16.31804847	     82.58959222	    128.95580804	     -0.90574906	     -4.10228502	    -24.23586633	    -22.17103217	    -20.60937961	    -23.54062123	     99.86681943	    136.65629019	    -22.30775497	    -14.75320405	      3.56835577
